<svg xmlns="http://www.w3.org/2000/svg" width="44.768" height="43.634" viewBox="0 0 44.768 43.634">
  <path id="Icon_awesome-arrow-right" data-name="Icon awesome-arrow-right" d="M19.034,5.57l2.218-2.218a2.388,2.388,0,0,1,3.387,0L44.064,22.766a2.388,2.388,0,0,1,0,3.387L24.64,45.577a2.388,2.388,0,0,1-3.387,0l-2.218-2.218a2.4,2.4,0,0,1,.04-3.427l12.04-11.471H2.4a2.392,2.392,0,0,1-2.4-2.4v-3.2a2.392,2.392,0,0,1,2.4-2.4H31.114L19.074,9A2.383,2.383,0,0,1,19.034,5.57Z" transform="translate(0 -2.647)" fill="#d5e5b5"/>
</svg>
