<svg xmlns="http://www.w3.org/2000/svg" width="42.728" height="41.646" viewBox="0 0 42.728 41.646">
  <path id="Icon_awesome-arrow-left" data-name="Icon awesome-arrow-left" d="M24.558,41.5l-2.117,2.117a2.279,2.279,0,0,1-3.233,0L.669,25.092a2.279,2.279,0,0,1,0-3.233L19.208,3.32a2.279,2.279,0,0,1,3.233,0l2.117,2.117a2.291,2.291,0,0,1-.038,3.271L13.028,19.656H40.436a2.283,2.283,0,0,1,2.289,2.289V25a2.283,2.283,0,0,1-2.289,2.289H13.028L24.52,38.233A2.275,2.275,0,0,1,24.558,41.5Z" transform="translate(0.004 -2.647)" fill="#d5e5b5"/>
</svg>
